name rise30.8019peak61.5557fall86.2505.mot
datacolumns 19
datarows 60
range 6.249981 6.348313
endheader
time	ground_force1_vx	ground_force1_vy	ground_force1_vz	ground_force1_px	ground_force1_py	ground_force1_pz	ground_force2_vx	ground_force2_vy	ground_force2_vz	ground_force2_px	ground_force2_py	ground_force2_pz	ground_torque1_x	ground_torque1_y	ground_torque1_z	ground_torque2_x	ground_torque2_y	ground_torque2_z	
6.249981	60.347160	463.799433	21.430674	0.317652	0.000000	0.108263	-77.693863	398.737830	-7.133472	-0.026923	0.000000	-0.061644	0.000000	1.009187	0.000000	0.000000	-10.517309	0.000000	
6.251647	61.142300	470.311480	22.311601	0.316725	0.000000	0.108328	-76.629262	389.069652	-6.394532	-0.027705	0.000000	-0.061459	0.000000	1.354358	0.000000	0.000000	-10.417089	0.000000	
6.253315	61.882555	476.722386	23.170581	0.315749	0.000000	0.108390	-75.495621	379.366732	-5.669909	-0.028501	0.000000	-0.061276	0.000000	1.691660	0.000000	0.000000	-10.308115	0.000000	
6.254977	62.567705	483.032716	24.006748	0.314728	0.000000	0.108450	-74.294145	369.638055	-4.960565	-0.029315	0.000000	-0.061094	0.000000	2.020609	0.000000	0.000000	-10.190430	0.000000	
6.256643	63.197710	489.243264	24.819373	0.313662	0.000000	0.108508	-73.026215	359.892289	-4.267485	-0.030146	0.000000	-0.060914	0.000000	2.340789	0.000000	0.000000	-10.064093	0.000000	
6.258312	63.772715	495.355030	25.607858	0.312553	0.000000	0.108563	-71.693400	350.137674	-3.591680	-0.030997	0.000000	-0.060735	0.000000	2.651858	0.000000	0.000000	-9.929180	0.000000	
6.259980	64.293036	501.369201	26.371742	0.311405	0.000000	0.108616	-70.297469	340.381930	-2.934199	-0.031867	0.000000	-0.060558	0.000000	2.953543	0.000000	0.000000	-9.785782	0.000000	
6.261650	64.759157	507.287134	27.110694	0.310218	0.000000	0.108666	-68.840405	330.632208	-2.296134	-0.032759	0.000000	-0.060383	0.000000	3.245641	0.000000	0.000000	-9.634008	0.000000	
6.263315	65.171724	513.110348	27.824510	0.308995	0.000000	0.108715	-67.324422	320.895100	-1.678620	-0.033673	0.000000	-0.060210	0.000000	3.528014	0.000000	0.000000	-9.473987	0.000000	
6.264978	65.531530	518.840509	28.513107	0.307738	0.000000	0.108761	-65.751982	311.176709	-1.082819	-0.034610	0.000000	-0.060038	0.000000	3.800590	0.000000	0.000000	-9.305871	0.000000	
6.266649	65.839510	524.479423	29.176516	0.306450	0.000000	0.108805	-64.125812	301.482792	-0.509908	-0.035572	0.000000	-0.059868	0.000000	4.063353	0.000000	0.000000	-9.129837	0.000000	
6.268317	66.096727	530.029024	29.814877	0.305133	0.000000	0.108846	-62.448907	291.818981	0.038956	-0.036559	0.000000	-0.059700	0.000000	4.316345	0.000000	0.000000	-8.946098	0.000000	
6.269981	66.304367	535.491366	30.428430	0.303789	0.000000	0.108886	-60.724540	282.191068	0.562672	-0.037572	0.000000	-0.059534	0.000000	4.559657	0.000000	0.000000	-8.754898	0.000000	
6.271657	66.463721	540.868609	31.017509	0.302421	0.000000	0.108924	-58.956251	272.605355	1.060244	-0.038613	0.000000	-0.059370	0.000000	4.793429	0.000000	0.000000	-8.556527	0.000000	
6.273309	66.576184	546.163003	31.582536	0.301032	0.000000	0.108959	-57.147835	263.069032	1.530839	-0.039682	0.000000	-0.059208	0.000000	5.017843	0.000000	0.000000	-8.351319	0.000000	
6.274983	66.643239	551.376878	32.124013	0.299624	0.000000	0.108993	-55.303302	253.590570	1.973844	-0.040781	0.000000	-0.059047	0.000000	5.233120	0.000000	0.000000	-8.139659	0.000000	
6.276645	66.666450	556.512623	32.642518	0.298199	0.000000	0.109025	-53.426837	244.180080	2.388929	-0.041909	0.000000	-0.058889	0.000000	5.439515	0.000000	0.000000	-7.921984	0.000000	
6.278311	66.647454	561.572667	33.138696	0.296761	0.000000	0.109055	-51.522740	234.849597	2.776095	-0.043067	0.000000	-0.058732	0.000000	5.637318	0.000000	0.000000	-7.698781	0.000000	
6.279983	66.587950	566.559461	33.613257	0.295312	0.000000	0.109083	-49.595345	225.613244	3.135717	-0.044257	0.000000	-0.058577	0.000000	5.826844	0.000000	0.000000	-7.470583	0.000000	
6.281642	66.489692	571.475456	34.066965	0.293855	0.000000	0.109109	-47.648942	216.487222	3.468563	-0.045478	0.000000	-0.058423	0.000000	6.008434	0.000000	0.000000	-7.237964	0.000000	
6.283317	66.354482	576.323082	34.500639	0.292392	0.000000	0.109134	-45.687683	207.489588	3.775792	-0.046732	0.000000	-0.058271	0.000000	6.182451	0.000000	0.000000	-7.001526	0.000000	
6.284980	66.184159	581.104726	34.915143	0.290925	0.000000	0.109157	-43.715490	198.639781	4.058912	-0.048018	0.000000	-0.058119	0.000000	6.349277	0.000000	0.000000	-6.761884	0.000000	
6.286650	65.980591	585.822715	35.311381	0.289458	0.000000	0.109179	-41.735973	189.957885	4.319704	-0.049336	0.000000	-0.057969	0.000000	6.509308	0.000000	0.000000	-6.519645	0.000000	
6.288318	65.745668	590.479290	35.690292	0.287993	0.000000	0.109199	-39.752365	181.463610	4.560117	-0.050687	0.000000	-0.057819	0.000000	6.662951	0.000000	0.000000	-6.275388	0.000000	
6.289978	65.481294	595.076592	36.052843	0.286532	0.000000	0.109217	-37.767475	173.175049	4.782108	-0.052071	0.000000	-0.057670	0.000000	6.810625	0.000000	0.000000	-6.029638	0.000000	
6.291650	65.189378	599.616644	36.400024	0.285077	0.000000	0.109235	-35.783686	165.107233	4.987461	-0.053486	0.000000	-0.057520	0.000000	6.952752	0.000000	0.000000	-5.782841	0.000000	
6.293310	64.871824	604.101330	36.732841	0.283631	0.000000	0.109250	-33.802994	157.270591	5.177583	-0.054934	0.000000	-0.057370	0.000000	7.089757	0.000000	0.000000	-5.535341	0.000000	
6.294981	64.530526	608.532388	37.052309	0.282195	0.000000	0.109265	-31.827089	149.669427	5.353277	-0.056411	0.000000	-0.057219	0.000000	7.222065	0.000000	0.000000	-5.287356	0.000000	
6.296646	64.167360	612.911389	37.359449	0.280773	0.000000	0.109278	-29.857495	142.300548	5.514537	-0.057919	0.000000	-0.057066	0.000000	7.350098	0.000000	0.000000	-5.038972	0.000000	
6.298309	63.784173	617.239732	37.655275	0.279365	0.000000	0.109290	-27.895767	135.152216	5.660357	-0.059455	0.000000	-0.056911	0.000000	7.474271	0.000000	0.000000	-4.790131	0.000000	
6.299978	63.382778	621.518631	37.940795	0.277973	0.000000	0.109301	-25.943720	128.203585	5.788596	-0.061017	0.000000	-0.056753	0.000000	7.594989	0.000000	0.000000	-4.540643	0.000000	
6.301643	62.964947	625.749109	38.217002	0.276599	0.000000	0.109312	-24.003705	121.424783	5.895919	-0.062604	0.000000	-0.056590	0.000000	7.712648	0.000000	0.000000	-4.290208	0.000000	
6.303308	62.532402	629.931989	38.484863	0.275245	0.000000	0.109321	-22.078894	114.777790	5.977829	-0.064212	0.000000	-0.056422	0.000000	7.827627	0.000000	0.000000	-4.038451	0.000000	
6.304984	62.086813	634.067890	38.745324	0.273911	0.000000	0.109329	-20.173568	108.218186	6.028811	-0.065838	0.000000	-0.056248	0.000000	7.940290	0.000000	0.000000	-3.784978	0.000000	
6.306649	61.629785	638.157224	38.999292	0.272600	0.000000	0.109336	-18.293362	101.697829	6.042607	-0.067478	0.000000	-0.056065	0.000000	8.050982	0.000000	0.000000	-3.529443	0.000000	
6.308315	61.162862	642.200193	39.247641	0.271310	0.000000	0.109343	-16.445458	95.168378	6.012613	-0.069128	0.000000	-0.055872	0.000000	8.160028	0.000000	0.000000	-3.271635	0.000000	
6.309981	60.687514	646.196789	39.491199	0.270045	0.000000	0.109349	-14.638677	88.585544	5.932387	-0.070782	0.000000	-0.055666	0.000000	8.267732	0.000000	0.000000	-3.011565	0.000000	
6.311644	60.205135	650.146791	39.730749	0.268804	0.000000	0.109354	-12.883452	81.913805	5.796253	-0.072432	0.000000	-0.055446	0.000000	8.374373	0.000000	0.000000	-2.749560	0.000000	
6.313312	59.717042	654.049772	39.967021	0.267587	0.000000	0.109359	-11.191657	75.131218	5.599956	-0.074070	0.000000	-0.055207	0.000000	8.480206	0.000000	0.000000	-2.486350	0.000000	
6.314977	59.224470	657.905097	40.200693	0.266395	0.000000	0.109363	-9.576271	68.233897	5.341305	-0.075685	0.000000	-0.054946	0.000000	8.585463	0.000000	0.000000	-2.223140	0.000000	
6.316643	58.728570	661.711928	40.432382	0.265229	0.000000	0.109367	-8.050887	61.239619	5.020762	-0.077266	0.000000	-0.054659	0.000000	8.690345	0.000000	0.000000	-1.961654	0.000000	
6.318311	58.230403	665.469231	40.662648	0.264087	0.000000	0.109371	-6.629072	54.190025	4.641872	-0.078797	0.000000	-0.054340	0.000000	8.795031	0.000000	0.000000	-1.704138	0.000000	
6.319983	57.730947	669.175778	40.891985	0.262971	0.000000	0.109374	-5.323611	47.150894	4.211493	-0.080259	0.000000	-0.053981	0.000000	8.899670	0.000000	0.000000	-1.453321	0.000000	
6.321657	57.231088	672.830159	41.120826	0.261879	0.000000	0.109377	-4.145687	40.210087	3.739742	-0.081628	0.000000	-0.053575	0.000000	9.004384	0.000000	0.000000	-1.212317	0.000000	
6.323315	56.731623	676.430788	41.349537	0.260810	0.000000	0.109381	-3.104068	33.472957	3.239609	-0.082875	0.000000	-0.053110	0.000000	9.109269	0.000000	0.000000	-0.984471	0.000000	
6.324980	56.233262	679.975912	41.578416	0.259766	0.000000	0.109384	-2.204368	27.055303	2.726249	-0.083961	0.000000	-0.052572	0.000000	9.214392	0.000000	0.000000	-0.773153	0.000000	
6.326650	55.736626	683.463621	41.807697	0.258743	0.000000	0.109387	-1.448481	21.074385	2.215979	0.000000	0.000000	0.000000	0.000000	9.319794	0.000000	0.000000	-0.318280	0.000000	
6.328310	55.242247	686.891860	42.037544	0.257743	0.000000	0.109390	-0.834262	15.638960	1.725077	0.000000	0.000000	0.000000	0.000000	9.425489	0.000000	0.000000	-0.222145	0.000000	
6.329977	54.750574	690.258441	42.268056	0.256762	0.000000	0.109393	-0.355496	10.839670	1.268557	0.000000	0.000000	0.000000	0.000000	9.531464	0.000000	0.000000	-0.140760	0.000000	
6.331651	54.261971	693.561056	42.499266	0.255802	0.000000	0.109397	-0.002197	6.741165	0.859062	0.000000	0.000000	0.000000	0.000000	9.637682	0.000000	0.000000	-0.074377	0.000000	
6.333312	53.776721	696.797290	42.731142	0.254859	0.000000	0.109400	0.238812	3.377013	0.506042	0.000000	0.000000	0.000000	0.000000	9.744080	0.000000	0.000000	-0.022689	0.000000	
6.334976	53.295031	699.964633	42.963589	0.253933	0.000000	0.109404	0.000000	0.000000	0.000000	0.000000	0.000000	0.000000	0.000000	9.850573	0.000000	0.000000	0.000000	0.000000	
6.336648	52.817029	703.060501	43.196449	0.253022	0.000000	0.109409	0.000000	0.000000	0.000000	0.000000	0.000000	0.000000	0.000000	9.957053	0.000000	0.000000	0.000000	0.000000	
6.338321	52.342774	706.082243	43.429507	0.252126	0.000000	0.109414	0.000000	0.000000	0.000000	0.000000	0.000000	0.000000	0.000000	10.063388	0.000000	0.000000	0.000000	0.000000	
6.339977	51.872256	709.027162	43.662490	0.251241	0.000000	0.109419	0.000000	0.000000	0.000000	0.000000	0.000000	0.000000	0.000000	10.169429	0.000000	0.000000	0.000000	0.000000	
6.341643	51.405403	711.892529	43.895072	0.250367	0.000000	0.109425	0.000000	0.000000	0.000000	0.000000	0.000000	0.000000	0.000000	10.275006	0.000000	0.000000	0.000000	0.000000	
6.343312	50.942082	714.675598	44.126875	0.249502	0.000000	0.109431	0.000000	0.000000	0.000000	0.000000	0.000000	0.000000	0.000000	10.379933	0.000000	0.000000	0.000000	0.000000	
6.344982	50.482106	717.373623	44.357474	0.248644	0.000000	0.109438	0.000000	0.000000	0.000000	0.000000	0.000000	0.000000	0.000000	10.484008	0.000000	0.000000	0.000000	0.000000	
6.346647	50.025238	719.983873	44.586401	0.247791	0.000000	0.109445	0.000000	0.000000	0.000000	0.000000	0.000000	0.000000	0.000000	10.587014	0.000000	0.000000	0.000000	0.000000	
6.348313	49.571196	722.503648	44.813149	0.246942	0.000000	0.109453	0.000000	0.000000	0.000000	0.000000	0.000000	0.000000	0.000000	10.688721	0.000000	0.000000	0.000000	0.000000	
